<?xml version="1.0" encoding="UTF-8" standalone="no"?>
<svg
   xmlns:dc="http://purl.org/dc/elements/1.1/"
   xmlns:cc="http://creativecommons.org/ns#"
   xmlns:rdf="http://www.w3.org/1999/02/22-rdf-syntax-ns#"
   xmlns:svg="http://www.w3.org/2000/svg"
   xmlns="http://www.w3.org/2000/svg"
   id="svg6"
   viewBox="0 0 32 32"
   height="32"
   width="32"
   version="1.1">
  <title>designers-italia</title>
  <path
     d="M 11.16081,27.85418 V 8.9547371 H 16.4367 V 27.887798 H 11.16081 Z M 31.880024,13.259237 h -4.821672 v 7.768288 c 0,0.773448 0.03499,1.277892 0.06997,1.614174 0.03499,0.302674 0.174704,0.571681 0.419269,0.807086 0.244579,0.235404 0.628933,0.336289 1.153022,0.336289 L 31.705421,23.717844 31.95,27.753321 C 30.203025,28.123214 28.840378,28.325 27.931929,28.325 c -2.375894,0 -3.9831,-0.504424 -4.821672,-1.546935 C 22.236772,25.7692 21.817502,23.88599 21.817502,21.128413 V 3.675 h 5.275868 v 5.2461094 h 4.82166 V 13.259237 Z M 3.2295079,14.70528 c -0.9084304,0 -1.6771025,-0.30266 -2.27107677,-0.907981 C 0.36445631,13.191978 0.05,12.452143 0.05,11.577792 0.05,10.70344 0.36445631,9.9636048 0.92349143,9.3582836 1.5174644,8.7529648 2.2861391,8.4839331 3.1945691,8.4839331 c 0.9084313,0 1.6771023,0.3026605 2.2710773,0.9079795 0.5939739,0.6053207 0.8734905,1.3451574 0.8734905,2.2531364 0,0.90798 -0.2795166,1.614188 -0.8734905,2.219507 C 4.9066121,14.40262 4.1728782,14.70528 3.2295079,14.70528 Z" />
</svg>
