<svg version="1.1" xmlns="http://www.w3.org/2000/svg" width="32" height="32" viewBox="0 0 32 32">
<title>gsuite</title>
  <path
     d="m 23.726924,9.0588798 c -1.004083,-1.025912 -2.095478,-1.811716 -3.252356,-2.357413 -1.156879,-0.545698 -2.619348,-0.807632 -4.300096,-0.807632 -1.35333,0 -2.641176,0.240106 -3.84171,0.72032 -1.200534,0.480214 -2.248273,1.156879 -3.143217,2.029995 -0.916772,0.873116 -1.637093,1.9426822 -2.160962,3.1868732 -0.52387,1.24419 -0.785804,2.619347 -0.785804,4.1473 0,1.527953 0.261934,2.90311 0.785804,4.147301 0.523869,1.24419 1.24419,2.291929 2.160962,3.165045 0.916771,0.873116 1.986338,1.571608 3.186873,2.051822 1.200534,0.480214 2.510208,0.720321 3.885365,0.720321 1.46247,0 2.750316,-0.196451 3.84171,-0.611181 1.091395,-0.414731 2.029995,-0.982256 2.815799,-1.680749 0.52387,-0.480213 1.004083,-1.069567 1.418813,-1.768059 0.414731,-0.720321 0.742149,-1.506125 0.982256,-2.379241 H 16.08716 v -5.238695 h 15.061249 c 0.08731,0.349246 0.152796,0.763976 0.218279,1.287846 0.06548,0.523869 0.08731,1.004083 0.08731,1.506124 0,2.073651 -0.305591,3.95085 -0.916772,5.675254 -0.611181,1.724404 -1.54978,3.230529 -2.772143,4.56203 -1.375157,1.462469 -3.012249,2.575692 -4.933104,3.383324 C 20.911124,31.607098 18.706506,32 16.239954,32 14.013508,32 11.91803,31.607098 9.953519,30.799465 7.98901,29.991833 6.264607,28.87861 4.78031,27.459797 3.31784,26.040984 2.160962,24.360236 1.287846,22.417553 0.41473,20.47487 0,18.313908 0,16.000151 0,13.686394 0.436558,11.54726 1.287846,9.5827488 2.139134,7.6182378 3.296012,5.9374898 4.78031,4.5186768 6.242779,3.0998638 7.967183,2.0084688 9.953521,1.2008368 11.93986,0.39320384 14.035338,3.0184e-4 16.239956,3.0184e-4 c 2.532036,0 4.780309,0.436558 6.722992,1.30967396 1.942683,0.873116 3.623431,2.07365 5.042244,3.601603 z" />
</svg>
