<svg version="1.1" xmlns="http://www.w3.org/2000/svg" width="32" height="32" viewBox="0 0 32 32">
<title>ipa</title>
  <path
     d="m 19.591797,9.3043417 v 3.3820323 l 6.527344,3.234765 c 0.185,0.104 0.277343,0.281064 0.277343,0.530664 0,0.2483 -0.09334,0.42183 -0.277343,0.51543 l -6.527344,3.371875 v 3.074804 l 8.748047,-4.275781 c 0.466,-0.2275 0.792422,-0.558513 0.982422,-0.995312 0.188,-0.4342 0.285156,-0.989808 0.285156,-1.658008 0,-0.6825 -0.09716,-1.242821 -0.285156,-1.678321 -0.19,-0.4355 -0.517422,-0.773886 -0.982422,-1.013086 z m -5.183594,0.025392 -5.1933592,0.00254 v 3.3744143 h 5.1855472 c 0.346,0 0.648265,0.101156 0.822265,0.335156 0.174,0.234 0.261719,0.574865 0.261719,1.018164 v 1.525977 c 0,0.451099 -0.08962,0.789424 -0.265625,1.015625 -0.176,0.226199 -0.436344,0.340233 -0.777344,0.340233 h -3.541015 c -0.181,0 -0.349813,0.04357 -0.507813,0.13457 -0.156,0.091 -0.293156,0.214703 -0.4101561,0.370703 -0.117,0.1573 -0.2093906,0.338021 -0.2753907,0.540821 -0.068,0.205401 -0.1015624,0.424856 -0.1015624,0.660157 l -0.013672,4.999414 h 2.6250002 l 0.0078,-3.290625 h 2.216797 c 0.668,0 1.234219,-0.157605 1.699219,-0.474805 0.465,-0.3172 0.843766,-0.714959 1.134766,-1.193359 0.29,-0.4771 0.498,-0.994967 0.625,-1.551367 0.128,-0.5551 0.191406,-1.072967 0.191406,-1.551367 v -1.525977 c 0,-0.8697 -0.121328,-1.606902 -0.361328,-2.216602 -0.24,-0.6084 -0.543203,-1.099555 -0.908203,-1.472655 -0.364,-0.3744009 -0.7595,-0.6460398 -1.1875,-0.8150398 -0.501,-0.1989 -0.917563,-0.2571764 -1.226563,-0.2259764 z M 5.2421875,9.3322722 1.484375,23.58149 H 3.4433594 L 7.1484375,9.3322722 Z M 31.988,24.46155 32,4.43115 c 0,-0.6396 -0.403,-1.1648 -0.896,-1.1648 L 7.11,3.17795 c -0.287,0.0039 -0.54,0.1872 -0.702,0.4641 -0.007,0.0143 -0.376,1.4001 -0.931,3.5022 h 1.906 l 0.487,-1.872 h 22.506 l -0.004,19.1932 h -0.007 l 0.006,2.86 v 0.0117 L 2.125,27.31375 2.522,25.80835 H 0.554 c -0.304,1.1518 -0.486,1.846 -0.486,1.846 -0.186,0.637 0.024,1.144 0.495,1.144 0,0 24.551,0.0312 29.812,0.0221 v 0.0026 l 0.354,-0.0039 0.369,-0.0039 c 0.454,0 0.832,-0.4459 0.889,-1.0179 0.004,-0.0481 0.008,-0.0962 0.008,-0.1456 l -0.002,-3.1889 h -0.005 z" />
</svg>
