<?xml version="1.0" encoding="UTF-8" standalone="no"?>
<svg
   xmlns:dc="http://purl.org/dc/elements/1.1/"
   xmlns:cc="http://creativecommons.org/ns#"
   xmlns:rdf="http://www.w3.org/1999/02/22-rdf-syntax-ns#"
   xmlns:svg="http://www.w3.org/2000/svg"
   xmlns="http://www.w3.org/2000/svg"
   version="1.1"
   viewBox="0 0 24 24">
  <title>it-fast-forward</title>
  <g
     transform="rotate(-180,9.689531,11.949153)">
    <path
       d="M 10.25,12 15,7.23 a 0.75,0.75 0 0 0 0,-1.06 0.74,0.74 0 0 0 -1.06,0 l -4.75,4.77 a 1.51,1.51 0 0 0 0,2.12 L 14,17.83 a 0.74,0.74 0 0 0 1.06,0 0.75,0.75 0 0 0 0,-1.06 z" />
  </g>
  <g
     transform="rotate(-180,12.393129,12.050847)">
    <path
       d="M 10.25,12 15,7.23 a 0.75,0.75 0 0 0 0,-1.06 0.74,0.74 0 0 0 -1.06,0 l -4.75,4.77 a 1.51,1.51 0 0 0 0,2.12 L 14,17.83 a 0.74,0.74 0 0 0 1.06,0 0.75,0.75 0 0 0 0,-1.06 z" />
  </g>
  <g
     transform="rotate(90,15.287004,15.388696)">
    <rect
       rx="0.75"
       height="1.5"
       width="12"
       y="11.25"
       x="6" />
  </g>
</svg>
