<?xml version="1.0" encoding="UTF-8" standalone="no"?>
<svg
   xmlns:dc="http://purl.org/dc/elements/1.1/"
   xmlns:cc="http://creativecommons.org/ns#"
   xmlns:rdf="http://www.w3.org/1999/02/22-rdf-syntax-ns#"
   xmlns:svg="http://www.w3.org/2000/svg"
   xmlns="http://www.w3.org/2000/svg"
   viewBox="0 0 24 24"
   version="1.1">
  <title>it-fast-backward</title>
  <g
     transform="translate(4.14636,0.101694)">
    <path
       d="M 10.25,12 15,7.23 a 0.75,0.75 0 0 0 0,-1.06 0.74,0.74 0 0 0 -1.06,0 l -4.75,4.77 a 1.51,1.51 0 0 0 0,2.12 L 14,17.83 a 0.74,0.74 0 0 0 1.06,0 0.75,0.75 0 0 0 0,-1.06 z"/>
  </g>
  <g
     transform="translate(-1.260836,-0.101694)">
    <path
       d="M 10.25,12 15,7.23 a 0.75,0.75 0 0 0 0,-1.06 0.74,0.74 0 0 0 -1.06,0 l -4.75,4.77 a 1.51,1.51 0 0 0 0,2.12 L 14,17.83 a 0.74,0.74 0 0 0 1.06,0 0.75,0.75 0 0 0 0,-1.06 z"/>
  </g>
  <g
     transform="rotate(-90,8.374015,15.524293)">
    <rect
       x="6"
       y="11.25"
       width="12"
       height="1.5"
       rx="0.75" />
  </g>
</svg>
