<?xml version="1.0" encoding="UTF-8" standalone="no"?>
<svg
   xmlns:dc="http://purl.org/dc/elements/1.1/"
   xmlns:cc="http://creativecommons.org/ns#"
   xmlns:rdf="http://www.w3.org/1999/02/22-rdf-syntax-ns#"
   xmlns:svg="http://www.w3.org/2000/svg"
   xmlns="http://www.w3.org/2000/svg"
   viewBox="0 0 11.648531 20.353203"
   version="1.1"
   width="20.353203"
   height="20.353203">
  <title>it-spid</title>
  <path
     class="st1"
     d="m -0.00494417,20.343034 c -0.01197286,-1.714959 0.5310933,-3.139784 1.61514997,-4.28138 1.0910565,-1.141645 2.4870636,-1.718405 4.2160215,-1.730475 1.7079584,-0.01193 3.1049316,0.552337 4.1770677,1.71388 1.079134,1.161495 1.628091,2.585697 1.640015,4.293656"
     style="stroke-width:0.07" />
  <path
     d="m 3.1357196,3.0261003 c 0.3591,-0.3591 0.9407996,-0.3591 1.2995496,-3.5e-4 l 0.08575,0.0861 1.10565,-1.1063503 -0.0861,-0.0861 C 4.9102192,1.28835 4.0254193,1.0675 3.2172696,1.25755 3.1014196,0.5446 2.4836696,7e-4 1.7388696,3.5e-4 c -0.82739992,0 -1.49799956,0.672 -1.49799956,1.5001 0,0.7147 0.49874972,1.3125003 1.16654956,1.4637003 -0.25305,0.847 -0.04655,1.80285 0.6216,2.4717 l 2.4919996,2.4926997 1.1046,-1.1070497 -2.4916496,-2.49235 c -0.35735,-0.35805 -0.35805,-0.94185 0.0021,-1.3027 z M 11.412175,1.5001 C 11.412175,0.6713 10.741575,0 9.9138236,0 9.1564216,0 8.5306198,0.5628 8.4298196,1.29325 7.5866692,1.04545 6.6385192,1.2551 5.9728192,1.92115 l -2.4919996,2.4927003 1.1056496,1.1067 2.4913,-2.492 c 0.36015,-0.3605 0.94045,-0.3598 1.2981502,-0.0021 0.358751,0.3591 0.358751,0.94185 -3.5e-4,1.30095 l -0.0854,0.08575 1.1049528,1.1074 0.0861,-0.0868 c 0.6611518,-0.66255 0.8715028,-1.6051 0.6300018,-2.44615 C 10.845525,2.8910003 11.412175,2.2617 11.412175,1.5001 Z M 10.138524,8.2148498 C 10.336625,7.4004 10.116824,6.5051003 9.4812224,5.8688003 l -2.4881532,-2.49375 -1.10565,1.106 2.4885002,2.49375 c 0.360151,0.3608497 0.359451,0.9418497 0.0021,1.2998995 -0.3587502,0.35875 -0.9408002,0.35875 -1.2999002,-3.5e-4 l -0.08505,-0.08505 -1.1046,1.1074 0.0847,0.08435 c 0.6727,0.6737502 1.6366,0.8799002 2.4867504,0.61775 0.1382504,0.6856502 0.743052,1.2008502 1.4686042,1.2008502 0.8270512,0 1.4980012,-0.67095 1.4980012,-1.4997502 0,-0.75705 -0.55965,-1.3832 -1.287651,-1.4854 z M 6.9237692,5.7823503 4.4349192,8.2760998 c -0.3577,0.3584 -0.9411496,0.3591 -1.3009496,-0.0014 -0.3591,-0.3597998 -0.3591,-0.9418498 -3.5e-4,-1.3012995 l 0.0854,-0.08505 -1.10565,-1.106 -0.0847,0.08435 c -0.6426,0.6433 -0.85925,1.5511997 -0.6503,2.3733495 -0.66044984,0.1561 -1.15219956,0.75075 -1.15219956,1.4602 C 0.22582004,10.5287 0.89711968,11.2 1.7245196,11.2 c 0.7119,-3.5e-4 1.30795,-0.49665 1.46055,-1.1634 0.8168997,0.203 1.7170996,-0.01435 2.3551496,-0.6534502 l 2.48815,-2.4933995 -1.10495,-1.10705 z"
     style="stroke-width:0.34999999" />
</svg>
