<?xml version="1.0" encoding="UTF-8" standalone="no"?>
<svg
   xmlns:dc="http://purl.org/dc/elements/1.1/"
   xmlns:cc="http://creativecommons.org/ns#"
   xmlns:rdf="http://www.w3.org/1999/02/22-rdf-syntax-ns#"
   xmlns:svg="http://www.w3.org/2000/svg"
   xmlns="http://www.w3.org/2000/svg"
   xml:space="preserve"
   height="464.88599"
   width="464.88599"
   version="1.0"
   viewBox="0 0 5.1654 5.1653998"
   id="svg6"
   style="fill-rule:evenodd"><title
     id="title4483">it-wordpress</title><metadata
     id="metadata12"><rdf:RDF><cc:Work
         rdf:about=""><dc:format>image/svg+xml</dc:format><dc:type
           rdf:resource="http://purl.org/dc/dcmitype/StillImage" /><dc:title>it-wordpress</dc:title></cc:Work></rdf:RDF></metadata><defs
     id="defs10" /><path
     d="m 2.58277,0.36194 c 0.57932,0 1.1068,0.222 1.5022,0.58547 -0.1938,-0.0052 -0.3872,0.11 -0.3952,0.3738 -0.0163,0.5333 0.6377,0.6469 0.2853,1.7196 l -0.2915,0.8873 -0.7939,-2.3386 c -0.0123,-0.0362 0.002,-0.0568 0.0465,-0.0568 h 0.22445 c 0.011665,0 0.021201,-0.00996 0.021201,-0.022158 v -0.13294 c 0,-0.012193 -0.00956,-0.022657 -0.021201,-0.022153 -0.42505,0.018587 -0.8476,0.018713 -1.2676,0 -0.0117,-5e-4 -0.0212,0.01 -0.0212,0.0222 v 0.13294 c 0,0.012185 0.00954,0.022158 0.021201,0.022158 h 0.22568 c 0.050201,0 0.064256,0.016728 0.076091,0.049087 l 0.3262,0.8921 -0.4907,1.4817 -0.8066,-2.3758 c -0.01,-0.0298 0.0021,-0.0471 0.0308,-0.0471 h 0.25715 c 0.011661,0 0.021197,-0.00996 0.021197,-0.022158 v -0.13294 c 0,-0.012193 -0.00957,-0.022764 -0.021197,-0.022153 -0.2698,0.014331 -0.54063,0.017213 -0.79291,0.019803 0.39589,-0.60984 1.0828,-1.0134 1.8639,-1.0134 l -2.9e-6,-6.2e-6 z m 1.9532,1.1633 c 0.17065,0.31441 0.26755,0.67464 0.26755,1.0574 0,0.84005 -0.46675,1.5712 -1.1549,1.9486 l 0.6926,-1.9617 c 0.1073,-0.3036 0.2069,-0.7139 0.1947,-1.0443 h -4e-6 z m -1.2097,3.1504 c -0.2325,0.0827 -0.4827,0.1278 -0.7435,0.1278 -0.2247,0 -0.4415,-0.0335 -0.6459,-0.0955 l 0.68415,-1.9606 0.70524,1.9284 v -1e-7 z m -1.6938,-0.0854 c -0.75101,-0.35617 -1.2705,-1.1213 -1.2705,-2.0075 0,-0.32852 0.071465,-0.64038 0.19955,-0.92096 l 1.071,2.9285 3e-6,-3e-6 z M 2.5827,0.15354 c 1.3413,0 2.4291,1.0878 2.4291,2.4291 0,1.3413 -1.0878,2.4291 -2.4291,2.4291 -1.3413,0 -2.4291,-1.0878 -2.4291,-2.4291 0,-1.3413 1.0878,-2.4291 2.4291,-2.4291 z M 2.5827,0 c 1.4261,0 2.5827,1.1566 2.5827,2.5827 0,1.4261 -1.1566,2.5827 -2.5827,2.5827 C 1.1566,5.1654 0,4.0088 0,2.5827 0,1.1566 1.1566,0 2.5827,0 Z"
     id="path2"
     style="fill:#464342" /></svg>