<?xml version="1.0" encoding="UTF-8" standalone="no"?>
<svg
   xmlns:dc="http://purl.org/dc/elements/1.1/"
   xmlns:cc="http://creativecommons.org/ns#"
   xmlns:rdf="http://www.w3.org/1999/02/22-rdf-syntax-ns#"
   xmlns:svg="http://www.w3.org/2000/svg"
   xmlns="http://www.w3.org/2000/svg"
   version="1.1"
   viewBox="0 0 24 24">
  <title>it-xml</title>
  <path
     style="stroke-width:0.01"
     d="m 12.522426,12.830764 0.56,0.153 -1.547,5.673 -0.56,-0.153 z" />
  <path
     style="stroke-width:0.01"
     d="m 10.481426,13.938764 -0.7740004,-0.774 -2.579,2.579 2.579,2.579 0.7740004,-0.774 -1.8060004,-1.805 z" />
  <path
     style="stroke-width:0.01"
     d="m 13.575426,17.548764 0.774,0.774 2.579,-2.579 -2.579,-2.579 -0.774,0.774 1.806,1.805 z" />
  <path
     d="M 19,5.41 16.59,3 15.67,2.08 15.59,2 H 5.5 A 1.5,1.5 0 0 0 4,3.5 v 17 A 1.5,1.5 0 0 0 5.5,22 h 13 A 1.5,1.5 0 0 0 20,20.5 V 6.41 Z m -0.37,1 H 16.1 A 0.5,0.5 0 0 1 15.6,5.91 V 3.42 Z M 18.5,21 H 5.5 A 0.5,0.5 0 0 1 5,20.5 V 3.5 A 0.5,0.5 0 0 1 5.5,3 h 9.1 v 3 a 1.5,1.5 0 0 0 1.5,1.5 H 19 v 13 A 0.5,0.5 0 0 1 18.5,21 Z" />
</svg>
