<?xml version="1.0" encoding="UTF-8" standalone="no"?>
<!-- Generated by IcoMoon.io -->

<svg
   xmlns:dc="http://purl.org/dc/elements/1.1/"
   xmlns:cc="http://creativecommons.org/ns#"
   xmlns:rdf="http://www.w3.org/1999/02/22-rdf-syntax-ns#"
   xmlns:svg="http://www.w3.org/2000/svg"
   xmlns="http://www.w3.org/2000/svg"
   xmlns:sodipodi="http://sodipodi.sourceforge.net/DTD/sodipodi-0.dtd"
   xmlns:inkscape="http://www.inkscape.org/namespaces/inkscape"
   version="1.1"
   width="32"
   height="32"
   viewBox="0 0 32 32"
   id="svg6"
   sodipodi:docname="lock.svg"
   inkscape:version="0.92.1 r15371">
  <metadata
     id="metadata12">
    <rdf:RDF>
      <cc:Work
         rdf:about="">
        <dc:format>image/svg+xml</dc:format>
        <dc:type
           rdf:resource="http://purl.org/dc/dcmitype/StillImage" />
      </cc:Work>
    </rdf:RDF>
  </metadata>
  <defs
     id="defs10" />
  <sodipodi:namedview
     pagecolor="#ffffff"
     bordercolor="#666666"
     borderopacity="1"
     objecttolerance="10"
     gridtolerance="10"
     guidetolerance="10"
     inkscape:pageopacity="0"
     inkscape:pageshadow="2"
     inkscape:window-width="640"
     inkscape:window-height="480"
     id="namedview8"
     showgrid="false"
     inkscape:zoom="7.375"
     inkscape:cx="16"
     inkscape:cy="16"
     inkscape:window-x="267"
     inkscape:window-y="68"
     inkscape:window-maximized="0"
     inkscape:current-layer="svg6" />
  <title
     id="title2">lock</title>
  <path
     d="M 24.5,14 H 24 V 8 C 24,4.692 21.308,2 18,2 H 14 C 10.692,2 8,4.692 8,8 v 6 H 7.5 C 6.675,14 6,14.675 6,15.5 v 15 C 6,31.325 6.675,32 7.5,32 h 17 c 0.825,0 1.5,-0.675 1.5,-1.5 v -15 C 26,14.675 25.325,14 24.5,14 Z M 12,8 c 0,-1.103 0.897,-2 2,-2 h 4 c 1.103,0 2,0.897 2,2 v 6 h -8 z"
     id="path4"
     inkscape:connector-curvature="0" />
</svg>
