<svg version="1.1" xmlns="http://www.w3.org/2000/svg" width="32" height="32" viewBox="0 0 32 32">
<title>unlink</title>
<path d="M 6.8261719 3.9785156 L 5.4121094 5.3925781 L 9.796875 9.7773438 L 3.9121094 9.7773438 C 1.7791094 9.7773438 0.001953125 11.377984 0.001953125 13.333984 L 0.001953125 20.445312 C 0.001953125 22.401312 1.7791094 24.001953 3.9121094 24.001953 L 11.734375 24.001953 L 11.734375 22.222656 L 3.9121094 22.222656 C 2.8451094 22.222656 1.9550781 21.512313 1.9550781 20.445312 L 1.9550781 13.333984 C 1.9550781 12.266984 2.8451094 11.556641 3.9121094 11.556641 L 11.576172 11.556641 L 20.462891 20.443359 L 16.355469 20.443359 C 15.288469 20.443359 14.400391 19.733016 14.400391 18.666016 L 14.400391 14.933594 L 12.443359 14.933594 L 12.443359 18.666016 C 12.443359 20.622016 14.222469 22.222656 16.355469 22.222656 L 22.242188 22.222656 L 26.744141 26.724609 L 28.158203 25.310547 L 25.070312 22.222656 L 28.087891 22.222656 C 30.220891 22.222656 31.998047 20.622016 31.998047 18.666016 L 31.998047 11.554688 C 31.998047 9.5986875 30.220891 7.9980469 28.087891 7.9980469 L 20.265625 7.9980469 L 20.265625 9.7773438 L 28.087891 9.7773438 C 29.154891 9.7773438 30.044922 10.487687 30.044922 11.554688 L 30.044922 18.666016 C 30.044922 19.733016 29.154891 20.443359 28.087891 20.443359 L 23.291016 20.443359 L 19.556641 16.708984 L 19.556641 13.333984 C 19.556641 11.377984 17.777531 9.7773437 15.644531 9.7773438 L 12.625 9.7773438 L 6.8261719 3.9785156 z M 14.404297 11.556641 L 15.644531 11.556641 C 16.711531 11.556641 17.599609 12.266984 17.599609 13.333984 L 17.599609 14.751953 L 14.404297 11.556641 z " />
</svg>
